<svg width="24" height="24" viewBox="0 0 24 24" fill="none" xmlns="http://www.w3.org/2000/svg"><path fill-rule="evenodd" clip-rule="evenodd" d="M16.5 2H7.5C4.5 2 2 4.5 2 7.5V16.5C2 19.5 4.5 22 7.5 22H16.5C19.5 22 22 19.5 22 16.5V7.5C22 4.5 19.5 2 16.5 2ZM20.2 16.5C20.2 18.6 18.5 20.2 16.5 20.2H7.5C5.4 20.2 3.8 18.5 3.8 16.5V7.5C3.8 5.4 5.5 3.8 7.5 3.8H16.5C18.6 3.8 20.2 5.5 20.2 7.5V16.5ZM12 6.8C9.2 6.8 6.8 9.1 6.8 12C6.8 14.8 9.1 17.2 12 17.2C14.9 17.2 17.2 14.9 17.2 12C17.2 9.2 14.8 6.8 12 6.8ZM12 15.4C10.1 15.4 8.6 13.9 8.6 12C8.6 10.1 10.1 8.6 12 8.6C13.9 8.6 15.4 10.1 15.4 12C15.4 13.9 13.9 15.4 12 15.4ZM18.7 6.6C18.7 7.31797 18.118 7.9 17.4 7.9C16.682 7.9 16.1 7.31797 16.1 6.6C16.1 5.88203 16.682 5.3 17.4 5.3C18.118 5.3 18.7 5.88203 18.7 6.6Z" fill="#333333"></path></svg>