<svg width="24" height="24" viewBox="0 0 24 24" fill="none" xmlns="http://www.w3.org/2000/svg"><path fill-rule="evenodd" clip-rule="evenodd" d="M2 12C2 6.5 6.5 2 12 2C17.5 2 22 6.5 22 12C22 17.5 17.5 22 12 22C6.5 22 2 17.5 2 12ZM14.6 16.7C14.8 16.8 15 16.7 15.1 16.5L16.9 7.6C16.9 7.4 16.7 7.2 16.5 7.3L6.2 11.3C5.9 11.3 5.9 11.7 6.2 11.8L8.7 12.7L9.7 15.8C9.8 16 10 16.1 10.2 16L11.6 14.9C11.7 14.8 12 14.8 12.1 14.9L14.6 16.7ZM10.6 13.1L14.6 9.3C14.6618 9.3 14.6472 9.2618 14.6271 9.20902C14.6146 9.17639 14.6 9.1382 14.6 9.1L9.7 12.1C9.5 12.3 9.4 12.5 9.5 12.7L10 14.6C10 14.8 10.2 14.7 10.2 14.6L10.3 13.6C10.4 13.4 10.5 13.2 10.6 13.1Z" fill="#333333"></path></svg>