<svg width="21" height="18" viewBox="0 0 21 18" fill="none" xmlns="http://www.w3.org/2000/svg"><path fill-rule="evenodd" clip-rule="evenodd" d="M7.2999 17.1C14.7999 17.1 18.9999 10.8 18.9999 5.40005V4.90005C19.7999 4.30005 20.4999 3.60005 20.9999 2.80005C20.2999 3.10005 19.4999 3.30005 18.5999 3.40005C19.4999 2.90005 20.0999 2.10005 20.3999 1.10005C19.5999 1.60005 18.6999 1.90005 17.7999 2.10005C16.2999 0.500048 13.6999 0.400048 11.9999 2.00005C10.8999 3.00005 10.4999 4.50005 10.7999 5.90005C7.4999 5.70005 4.4999 4.20005 2.3999 1.60005C1.2999 3.50005 1.8999 5.90005 3.6999 7.10005C2.9999 7.10005 2.3999 6.90005 1.7999 6.60005V6.70005C1.7999 8.70005 3.1999 10.3 5.0999 10.7C4.4999 10.9 3.8999 10.9 3.1999 10.8C3.6999 12.5 5.2999 13.6 6.9999 13.6C5.4999 14.7 3.7999 15.4 1.8999 15.4C1.5999 15.4 1.1999 15.4 0.899902 15.3C2.8999 16.5 5.0999 17.1 7.2999 17.1" fill="#333333"></path></svg>