<svg viewBox="0 0 60 60" fill="none" xmlns="http://www.w3.org/2000/svg">
                <path fill-rule="evenodd" clip-rule="evenodd" d="M27.979 47.6717C39.3402 45.776 48 35.8993 48 24C48 10.7452 37.2548 0 24 0C10.7452 0 0 10.7452 0 24C0 35.9979 8.80391 45.9396 20.304 47.7172L20.2889 31.9494C19.0321 31.4397 17.8773 30.6791 16.889 29.6908C14.9535 27.7554 13.8853 25.1844 13.881 22.4512C13.8757 18.7978 15.8411 15.3996 19.0101 13.5822C19.4716 13.3185 20.0386 13.3799 20.3895 13.7308C20.5401 13.8814 20.72 14.1532 20.7214 14.5923C20.7214 14.5923 20.7462 19.477 20.7489 21.2539C20.7495 21.5292 20.8725 21.7098 20.9757 21.813C20.9945 21.8318 21.0097 21.8449 21.0182 21.8517L21.0719 21.8838L21.0666 21.8888C22.1065 22.7582 23.4196 23.7361 23.9993 24.0348C24.0105 24.0346 24.0215 24.0345 24.0325 24.0343C24.0594 24.0339 24.0862 24.0335 24.114 24.0335C24.1338 24.0336 24.1522 24.0341 24.1705 24.0347C24.1871 24.0352 24.2036 24.0357 24.221 24.0358C24.7903 23.7406 26.0811 22.7821 27.1043 21.9313L27.1683 21.8832C27.2576 21.8191 27.4708 21.6063 27.4705 21.4274C27.4678 19.7205 27.4798 14.5986 27.4798 14.5986C27.4793 14.1629 27.6809 13.7942 28.0333 13.5901C28.3779 13.3905 28.8244 13.3894 29.1708 13.5877C29.9615 14.0407 30.6899 14.5979 31.3356 15.2437C33.2707 17.1788 34.3388 19.7496 34.3429 22.4822C34.3474 25.2151 33.2872 27.7829 31.3576 29.7125C30.3724 30.6981 29.2197 31.455 27.9642 31.9611L27.979 47.6717Z" fill="#FF6000"></path>
                </svg>