<svg width="24" height="24" viewBox="0 0 24 24" fill="none" xmlns="http://www.w3.org/2000/svg"><path fill-rule="evenodd" clip-rule="evenodd" d="M22.5 6.70005C22.2 5.70005 21.5 5.00005 20.6 4.70005C18.9 4.30005 12 4.30005 12 4.30005C12 4.30005 5.1 4.30005 3.4 4.80005C2.5 5.10005 1.7 5.80005 1.5 6.80005C1 8.40005 1 12 1 12C1 12 1 15.6 1.5 17.3C1.8 18.3 2.5 19 3.4 19.3C5.1 19.8 12 19.8 12 19.8C12 19.8 18.9 19.8 20.6 19.3C21.5 19 22.3 18.3 22.5 17.3C23 15.6 23 12 23 12C23 12 23 8.40005 22.5 6.70005ZM9.8 15.3V8.70005L15.6 12L9.8 15.3Z" fill="#333333"></path></svg>